<?xml version="1.0" standalone="no"?>
<!DOCTYPE svg PUBLIC "-//W3C//DTD SVG 20010904//EN"
 "http://www.w3.org/TR/2001/REC-SVG-20010904/DTD/svg10.dtd">
<svg version="1.0" xmlns="http://www.w3.org/2000/svg"
 width="379.000000pt" height="133.000000pt" viewBox="0 0 379.000000 133.000000"
 preserveAspectRatio="xMidYMid meet">

<g transform="translate(0.000000,133.000000) scale(0.100000,-0.100000)"
fill="#000000" stroke="none">
<path d="M792 1115 c-128 -28 -216 -84 -257 -164 -52 -104 -46 -177 26 -283
59 -87 67 -122 43 -173 -23 -49 -112 -107 -213 -140 l-76 -24 141 -1 c132 0
143 1 194 27 108 54 174 149 174 253 1 46 -7 71 -43 143 -39 78 -43 93 -39
140 8 101 61 166 174 212 l59 25 -60 -1 c-33 0 -88 -7 -123 -14z"/>
<path d="M3432 950 c-32 -30 -30 -82 4 -109 55 -43 134 -11 134 54 0 64 -90
100 -138 55z"/>
<path d="M1375 933 c-100 -52 -139 -146 -100 -241 24 -56 48 -76 150 -122 100
-45 121 -68 91 -99 -26 -25 -95 -19 -149 13 l-46 26 -41 -52 -40 -53 32 -27
c72 -62 215 -78 304 -33 73 37 99 81 99 169 0 96 -22 127 -124 173 -109 48
-123 56 -135 76 -9 15 -6 22 14 39 28 23 66 20 124 -7 41 -20 44 -18 81 35 27
38 27 41 10 59 -50 57 -201 81 -270 44z"/>
<path d="M2358 939 c-54 -15 -96 -67 -104 -129 -6 -47 -8 -50 -35 -50 -28 0
-29 -1 -29 -55 0 -54 0 -55 30 -55 l30 0 0 -160 0 -160 75 0 75 0 0 160 0 160
35 0 35 0 0 55 0 55 -35 0 c-30 0 -35 3 -35 24 0 30 17 44 60 48 33 3 35 5 44
51 4 26 6 50 4 52 -10 11 -117 13 -150 4z"/>
<path d="M1836 750 c-70 -28 -73 -32 -42 -84 l26 -45 46 21 c52 22 108 18 118
-9 4 -9 5 -17 4 -19 -2 -1 -35 -10 -73 -19 -39 -8 -87 -27 -107 -40 -71 -47
-74 -153 -7 -209 42 -36 121 -37 173 -1 34 23 36 23 36 5 0 -18 7 -20 66 -20
l66 0 -4 168 c-3 153 -5 170 -26 203 -12 20 -38 44 -56 53 -47 22 -158 20
-220 -4z m154 -265 c0 -24 -6 -37 -19 -45 -43 -22 -89 -1 -75 35 7 17 56 44
82 45 7 0 12 -13 12 -35z"/>
<path d="M2640 761 c-32 -10 -90 -40 -90 -47 0 -4 39 -85 45 -92 1 -1 22 7 46
18 55 25 81 25 110 1 30 -24 25 -28 -40 -41 -29 -5 -72 -19 -97 -29 -98 -44
-113 -163 -28 -230 39 -31 119 -29 168 4 34 23 36 23 36 5 0 -18 7 -20 65 -20
l65 0 0 149 c0 189 -16 237 -92 277 -29 15 -145 18 -188 5z m130 -276 c0 -24
-6 -37 -19 -45 -43 -22 -89 -1 -75 35 7 17 56 44 82 45 7 0 12 -13 12 -35z"/>
<path d="M3215 759 c-11 -6 -32 -24 -46 -41 l-27 -29 -6 35 -7 36 -59 0 -60 0
0 -215 0 -215 75 0 75 0 0 125 c0 123 0 125 28 156 24 27 36 32 83 34 l54 3 0
59 0 58 -45 2 c-25 2 -54 -2 -65 -8z"/>
<path d="M3410 545 l0 -215 75 0 75 0 0 215 0 215 -75 0 -75 0 0 -215z"/>
</g>
</svg>
